<svg xmlns="http://www.w3.org/2000/svg" xmlns:xlink="http://www.w3.org/1999/xlink" viewBox="0 0 1696.62 1696.62"><defs><style>.cls-1{fill:#fff;}.cls-2{fill:#4d4e4e;}.cls-3{fill:url(#linear-gradient);}.cls-4{fill:url(#linear-gradient-2);}.cls-5{fill:url(#linear-gradient-3);}.cls-6{fill:#48505a;}.cls-7{fill:url(#linear-gradient-4);}.cls-8{fill:url(#linear-gradient-5);}.cls-9{fill:#21bef0;}.cls-10{fill:#4c565c;}.cls-11{fill:#484d55;}.cls-12{fill:url(#linear-gradient-6);}.cls-13{fill:#4e4f4f;}.cls-14{fill:#1ec0ea;}.cls-15{font-size:38.12px;fill:#575757;font-family:Gotham-Light, Gotham;font-weight:300;}.cls-16{fill:url(#radial-gradient);}.cls-17{fill:url(#radial-gradient-2);}.cls-18{fill:url(#radial-gradient-3);}.cls-19{fill:url(#radial-gradient-4);}.cls-20{fill:url(#radial-gradient-5);}.cls-21{fill:url(#radial-gradient-6);}.cls-22{fill:url(#radial-gradient-7);}.cls-23{fill:url(#radial-gradient-8);}.cls-24{fill:#474849;}</style><linearGradient id="linear-gradient" x1="809.52" y1="983.75" x2="824.19" y2="1035.11" gradientUnits="userSpaceOnUse"><stop offset="0" stop-color="#0fb7db"/><stop offset="1" stop-color="#0f88a4"/></linearGradient><linearGradient id="linear-gradient-2" x1="877.46" y1="964.34" x2="892.14" y2="1015.7" xlink:href="#linear-gradient"/><linearGradient id="linear-gradient-3" x1="823.43" y1="979.77" x2="838.1" y2="1031.14" xlink:href="#linear-gradient"/><linearGradient id="linear-gradient-4" x1="802.01" y1="895.51" x2="1099.19" y2="477.27" gradientUnits="userSpaceOnUse"><stop offset="0" stop-color="#4a535d"/><stop offset="1" stop-color="#1dbeeb"/></linearGradient><linearGradient id="linear-gradient-5" x1="779.95" y1="879.84" x2="1077.12" y2="461.59" gradientUnits="userSpaceOnUse"><stop offset="0" stop-color="#4a535d"/><stop offset="1" stop-color="#1dbeeb"/></linearGradient><linearGradient id="linear-gradient-6" x1="823.18" y1="596.01" x2="494.37" y2="331.17" gradientUnits="userSpaceOnUse"><stop offset="0" stop-color="#474c52"/><stop offset="1" stop-color="#474c54"/></linearGradient><radialGradient id="radial-gradient" cx="2063.97" cy="374.64" r="621.65" gradientTransform="translate(-827.27 -2043.85) rotate(45)" gradientUnits="userSpaceOnUse"><stop offset="0.04" stop-color="#7f8080"/><stop offset="0.41" stop-color="#7d7e7e"/><stop offset="0.6" stop-color="#757676"/><stop offset="0.74" stop-color="#686969"/><stop offset="0.87" stop-color="#565656"/><stop offset="0.97" stop-color="#3e3e3e"/><stop offset="1" stop-color="#373737"/></radialGradient><radialGradient id="radial-gradient-2" cx="258.84" cy="1744.72" r="621.65" gradientTransform="translate(-576.44 -1382.02)" xlink:href="#radial-gradient"/><radialGradient id="radial-gradient-3" cx="-1986.38" cy="1437.09" r="621.65" gradientTransform="translate(68.91 -1091.4) rotate(-45)" xlink:href="#radial-gradient"/><radialGradient id="radial-gradient-4" cx="-3356.45" cy="-368.05" r="621.65" gradientTransform="translate(730.74 -1342.23) rotate(-90)" xlink:href="#radial-gradient"/><radialGradient id="radial-gradient-5" cx="-3048.82" cy="-2613.26" r="621.65" gradientTransform="translate(1021.36 -1987.58) rotate(-135)" xlink:href="#radial-gradient"/><radialGradient id="radial-gradient-6" cx="-1243.69" cy="-3983.34" r="621.65" gradientTransform="translate(770.53 -2649.41) rotate(180)" xlink:href="#radial-gradient"/><radialGradient id="radial-gradient-7" cx="1001.52" cy="-3675.71" r="621.65" gradientTransform="translate(125.18 -2940.03) rotate(135)" xlink:href="#radial-gradient"/><radialGradient id="radial-gradient-8" cx="2371.6" cy="-1870.57" r="621.65" gradientTransform="translate(-536.65 -2689.2) rotate(90)" xlink:href="#radial-gradient"/></defs><g id="Layer_2" data-name="Layer 2"><g id="Layer_1-2" data-name="Layer 1"><polygon class="cls-1" points="1600.64 1158.43 1354.61 1348.58 1161 1599.57 852.57 1560.05 538.19 1600.64 348.04 1354.6 97.05 1161 136.56 852.57 95.98 538.19 342.02 348.04 535.62 97.04 844.05 136.56 1158.43 95.98 1348.58 342.01 1599.57 535.62 1560.06 844.05 1600.64 1158.43"/><circle class="cls-2" cx="145.71" cy="556.48" r="53.35"/><circle class="cls-2" cx="555.3" cy="143.44" r="53.35"/><circle class="cls-2" cx="1135.89" cy="143.44" r="53.35"/><circle class="cls-2" cx="1551.3" cy="557.79" r="53.35"/><circle class="cls-2" cx="1550.99" cy="1137.44" r="53.35"/><circle class="cls-2" cx="1138.83" cy="1550.56" r="53.35"/><circle class="cls-2" cx="551.45" cy="1550.56" r="53.35"/><circle class="cls-2" cx="143.79" cy="1138.83" r="53.35"/><path class="cls-3" d="M846.83,1014.54a33,33,0,0,1-63.05-10.26c0-.23,0-.46,0-.69s0-.54-.08-.81a.33.33,0,0,1,0-.1,23.41,23.41,0,0,0-11.73-17.78A23,23,0,0,0,763.1,982c.39,0,.8.05,1.2.06a23.45,23.45,0,0,0,18.13-7.81,65.84,65.84,0,0,1,67.7-9.09,47.23,47.23,0,0,0-22.06,5.11c-1,.5-2,1-2.91,1.6h0a47.88,47.88,0,0,0-14.47,13.33,11.4,11.4,0,1,1-6,19.29,25.25,25.25,0,0,0,42.16,10Z"/><path class="cls-4" d="M846.83,1014.54a33,33,0,0,1,47.51-42.71l.55.41c.23.15.45.31.68.44l.08.06a23.36,23.36,0,0,0,29-3.08c-.26.29-.54.59-.8.9A23.31,23.31,0,0,0,918.32,984a22.92,22.92,0,0,0,.25,5.61A65.85,65.85,0,0,1,883.24,1048a47.4,47.4,0,0,0,9.84-20.39c.23-1.09.43-2.18.57-3.28h0a47.84,47.84,0,0,0-1.33-19.63,10.91,10.91,0,0,1-1.34,1.95A11.39,11.39,0,1,1,881.07,988a25.26,25.26,0,0,0-34.24,26.57Z"/><path class="cls-5" d="M846.83,1014.54a33,33,0,0,1,18.36,61.19c-.21.1-.41.22-.61.33l-.69.42-.09,0a23.37,23.37,0,0,0-10.86,18.32,23,23,0,0,0,1.27,9.21c-.14-.36-.3-.74-.46-1.1a23.33,23.33,0,0,0-9.78-10.72,23.1,23.1,0,0,0-5.18-2.17,65.83,65.83,0,0,1-37.79-56.9,47.25,47.25,0,0,0,14.24,17.6c.89.68,1.79,1.32,2.72,1.92h0a47.81,47.81,0,0,0,18.31,7.18,11.4,11.4,0,1,1,20-3,25.26,25.26,0,0,0-9.42-42.3Z"/><path class="cls-6" d="M847.7,931.13a84.13,84.13,0,1,1-84.13,84.13,84.22,84.22,0,0,1,84.13-84.13m0-13a97.13,97.13,0,1,0,97.12,97.13,97.13,97.13,0,0,0-97.12-97.13Z"/><path class="cls-7" d="M970.27,761.6,859.79,910.12V711.31s17.28,16.51,34.7,26.14C911.7,747,949,757.36,970.27,761.6Z"/><path class="cls-8" d="M1212,436.61,991.13,733.55C930.24,712,886.53,679,871.1,659c-7.3-9.45-10.25-22.43-11.31-33.55V602.63C1023.05,433.86,1212,436.61,1212,436.61Z"/><path class="cls-9" d="M1202.23,836.8c-27.38,86.86-104.53,107.49-145.55,122-49.22,17.42-103.38,40.86-103.38,40.86L951,998.22a102.72,102.72,0,0,0-91.17-88.1L970.27,761.6l.81.16c21.09,4.13,90.34,17.43,138.49,32.1S1202.23,836.8,1202.23,836.8Z"/><path class="cls-9" d="M1212,776.21a233.11,233.11,0,0,1-7.61,53.18s-1.26-7.55-49-36S1055,755.8,993.09,734.24l-2-.69L1212,436.61S1216.81,637.25,1212,776.21Z"/><path class="cls-10" d="M836.84,602.63,582.65,936.51c-46.11-22.79-94.72-65.07-98-160.3-4.81-139,0-339.6,0-339.6S673.57,433.86,836.84,602.63Z"/><path class="cls-11" d="M836.84,602.63V909.92a102.71,102.71,0,0,0-93.52,89.75c-.86-.38-54.55-23.58-103.38-40.86-15.49-5.48-36.12-11.84-57.29-22.3Z"/><path class="cls-12" d="M508.47,324.72s-26,12.38-26,32.79,43,55.25,104,76.81,106.85,29.36,165.09,68.34,85.31,89,85.31,100c0,0-10.1-65.58-90.35-116.94s-149-60.53-198.58-92.18-49.52-39-49.52-49.83S508.47,324.72,508.47,324.72Z"/><rect class="cls-2" x="689.02" y="1115.13" width="30.73" height="170.14"/><rect class="cls-13" x="1136.85" y="1115.13" width="30.73" height="170.14"/><polygon class="cls-2" points="934.02 1115.13 934.02 1285.27 903.3 1285.27 903.3 1195.87 868.96 1236.94 848.93 1260.89 828.9 1236.94 794.56 1195.87 794.56 1285.27 763.83 1285.27 763.83 1115.13 794.56 1147.97 848.93 1212.99 903.3 1147.97 934.02 1115.13"/><polygon class="cls-2" points="646.38 1115.13 646.38 1285.27 615.65 1285.27 615.65 1218.31 528.82 1218.31 528.82 1285.27 498.1 1285.27 498.1 1115.13 528.82 1115.13 528.82 1187.59 615.65 1187.59 615.65 1115.13 646.38 1115.13"/><path class="cls-13" d="M1076.69,1158.7s-23.84-19-45.55-19-31.8,13.46-31.8,22.63,17.12,22.32,43.11,22.32,60.54,19.87,60.54,53.81-22.63,48.91-64.51,48.91-72.16-25.07-72.16-25.07l18-25.07s20.18,21.1,50.29,21.1,38.37-12.84,38.37-22-13.45-22.78-38.37-22.78-65.57-10.85-65.57-51.52,37.29-49.68,65.57-49.68,60.08,21.25,60.08,21.25Z"/><polygon class="cls-14" points="689.02 1115.13 719.75 1115.13 689.02 1149.38 689.02 1115.13"/><polygon class="cls-14" points="1167.57 1115.13 1136.85 1115.13 1167.57 1149.38 1167.57 1115.13"/><text class="cls-15" transform="translate(495.6 1341) scale(0.91 1)">Himpunan Mahasiswa Sistem Informasi<tspan x="166.73" y="45.75">Universitas Airlangga</tspan></text><polygon class="cls-16" points="535.62 97.05 342.01 348.04 271.54 277.73 458.47 38.46 549.27 0.83 843.93 37.01 844.05 136.56 535.62 97.05"/><polygon class="cls-17" points="95.98 538.19 136.56 852.57 37.01 852.69 0 551.32 37.6 460.5 271.54 277.73 342.01 348.04 95.98 538.19"/><polygon class="cls-18" points="97.05 1161 348.04 1354.61 277.73 1425.09 38.46 1238.15 0.83 1147.35 37.01 852.69 136.56 852.57 97.05 1161"/><polygon class="cls-19" points="538.19 1600.64 852.57 1560.06 852.69 1659.61 551.32 1696.62 460.5 1659.02 277.73 1425.09 348.04 1354.61 538.19 1600.64"/><polygon class="cls-20" points="1161 1599.57 1354.61 1348.58 1425.09 1418.89 1238.15 1658.16 1147.35 1695.79 852.69 1659.61 852.57 1560.06 1161 1599.57"/><polygon class="cls-21" points="1600.64 1158.43 1560.06 844.05 1659.61 843.93 1696.62 1145.31 1659.02 1236.12 1425.09 1418.89 1354.61 1348.58 1600.64 1158.43"/><polygon class="cls-22" points="1599.57 535.62 1348.58 342.01 1418.89 271.54 1658.16 458.47 1695.79 549.27 1659.61 843.93 1560.06 844.05 1599.57 535.62"/><polygon class="cls-23" points="1158.43 95.98 844.05 136.56 843.93 37.01 1145.31 0 1236.12 37.6 1418.89 271.54 1348.58 342.01 1158.43 95.98"/><path class="cls-24" d="M1042.39,192.46h0l-35.05.32a3.5,3.5,0,0,0,.06,7h0l35-.32a3.5,3.5,0,0,0,0-7Zm-71,.65h0l-35,.32a3.5,3.5,0,0,0,0,7h0l35-.32a3.5,3.5,0,0,0,0-7Zm-70,.64h0l-13,.11h-.6l-22.43.21a3.5,3.5,0,0,0,0,7h0l36-.34a3.5,3.5,0,0,0,0-7Zm-71,.66h0l-35,.32a3.5,3.5,0,0,0,0,7h0l35-.32a3.5,3.5,0,0,0,0-7Zm-71,.65h0l-35,.33a3.5,3.5,0,0,0,0,7h0l35-.32a3.5,3.5,0,0,0,0-7Zm-70,.65h0l-26,.24h-.65l-9.4.09a3.5,3.5,0,0,0,0,7h0l36-.33a3.5,3.5,0,0,0,0-7Zm-71,.65h0l-27.3.25h-4l-3.67,0a3.5,3.5,0,0,0,0,7h0l35-.32a3.5,3.5,0,0,0,0-7Zm-61.09,17.12a3.47,3.47,0,0,0-2.48,1l-24.56,25a3.5,3.5,0,0,0,5,4.9l24.53-25a3.5,3.5,0,0,0-2.5-6Zm-49.06,49.93a3.49,3.49,0,0,0-2.5,1l-25.23,25.68a3.5,3.5,0,0,0,5,4.9l25.23-25.68a3.5,3.5,0,0,0-.05-4.95,3.47,3.47,0,0,0-2.45-1Zm-49.76,50.65a3.5,3.5,0,0,0-2.49,1l-24.53,25a3.5,3.5,0,0,0,5,4.91L461,320a3.5,3.5,0,0,0-.05-4.95,3.47,3.47,0,0,0-2.45-1ZM408.73,364.7a3.47,3.47,0,0,0-2.49,1.05l-3.61,3.67,0,0h0l0,0h0l-.05.05h0l-20.79,21.16a3.5,3.5,0,0,0,2.51,5.94,3.47,3.47,0,0,0,2.5-1.05l24.53-25a3.51,3.51,0,0,0-2.5-6Zm-49.05,49.94a3.48,3.48,0,0,0-2.5,1l-4.66,4.74,0,0-.14.14h0l-.06.05L332,441.36a3.5,3.5,0,1,0,5,4.91l25.23-25.68a3.49,3.49,0,0,0-2.49-5.95Zm-49.76,50.64a3.49,3.49,0,0,0-2.5,1.05l-6,6.07-.21.22,0,0-.5.51h0L282.89,491.3a3.49,3.49,0,0,0,2.5,5.95,3.47,3.47,0,0,0,2.49-1.05l24.53-25a3.51,3.51,0,0,0-2.49-6Zm-49.76,50.65a3.52,3.52,0,0,0-2.5,1l-4,4,0,0,0,0h0l0,0-.08.08,0,0-.07.08,0,0-.21.2h0l-20,20.38a3.5,3.5,0,1,0,5,4.91l24.52-25a3.49,3.49,0,0,0-2.49-6ZM211.1,565.86a3.52,3.52,0,0,0-2.49,1l-16.26,16.55h0l-.06,0h0l-.08.09,0,0,0,0,0,0h0l-.05,0h0l-.1.1,0,0-.1.1h0l-.1.1h0l-.09.09h0l-.05,0h0l0,0-.05,0h0l0,0h0l-.68.69h0v10.53a3.49,3.49,0,0,0,3.49,3.5h0a3.5,3.5,0,0,0,3.5-3.5V588l15.85-16.14a3.51,3.51,0,0,0-2.5-5.95Zm-16.91,61.25a3.49,3.49,0,0,0-3.49,3.5s0,7.43,0,15.45v.38h0l0,19.19a3.5,3.5,0,0,0,3.5,3.48h0a3.49,3.49,0,0,0,3.5-3.5l0-35a3.5,3.5,0,0,0-3.5-3.5Zm-.08,71a3.5,3.5,0,0,0-3.5,3.5s0,7.94,0,16.27h0v.29l0,18.46a3.5,3.5,0,0,0,3.5,3.48h0a3.5,3.5,0,0,0,3.5-3.5l0-35a3.5,3.5,0,0,0-3.49-3.5Zm-.08,70a3.5,3.5,0,0,0-3.5,3.49l0,36a3.5,3.5,0,0,0,3.49,3.48h0a3.5,3.5,0,0,0,3.5-3.5l0-36a3.5,3.5,0,0,0-3.5-3.5Zm-.08,71a3.5,3.5,0,0,0-3.5,3.49l0,11.33v.28h0v.09h0v.24h0v0h0v0h0v0h0v0h0c0,10.11,0,22.86,0,22.86a3.49,3.49,0,0,0,3.49,3.5h0a3.51,3.51,0,0,0,3.51-3.5l0-35a3.5,3.5,0,0,0-3.5-3.5Zm-.09,71a3.5,3.5,0,0,0-3.5,3.49v9.08h0v.13h0v.06h0v.66c0,10.35,0,25.06,0,25.06a3.5,3.5,0,0,0,3.5,3.5h0a3.5,3.5,0,0,0,3.5-3.5l0-35a3.49,3.49,0,0,0-3.49-3.5Zm-.08,70a3.5,3.5,0,0,0-3.5,3.5l0,36a3.5,3.5,0,0,0,3.49,3.5h0a3.5,3.5,0,0,0,3.5-3.5l0-36a3.5,3.5,0,0,0-3.5-3.5Zm-.08,71a3.5,3.5,0,0,0-3.5,3.5s0,13.28,0,23.48v.15h0v11.38a3.49,3.49,0,0,0,3.49,3.49h0a3.5,3.5,0,0,0,3.5-3.5l0-35a3.5,3.5,0,0,0-3.5-3.5Zm8.19,64.75a3.51,3.51,0,0,0-2.5,6l15.84,16.13,0,0,0,0,0,0,0,0,.12.12h0l.1.1.11.11,0,0,.05,0,0,0,.26.26h0l.19.2,0,0,0,0,0,0,0,0h0l0,0,.1.1,0,0,.06.06.09.09.49.5v0l1,1h0l5.68,5.79a3.52,3.52,0,0,0,2.5,1,3.49,3.49,0,0,0,2.49-5.95l-24.52-25a3.49,3.49,0,0,0-2.5-1.05Zm49.05,49.94a3.51,3.51,0,0,0-2.49,6l25.22,25.68a3.5,3.5,0,0,0,5-4.91l-25.23-25.68a3.47,3.47,0,0,0-2.5-1Zm49.75,50.66a3.49,3.49,0,0,0-2.49,6l11.92,12.14.09.08v0l12.52,12.74a3.5,3.5,0,0,0,5-4.92l-24.53-25a3.5,3.5,0,0,0-2.5-1Zm49.76,50.65a3.5,3.5,0,0,0-2.51,5.94l24.54,25a3.52,3.52,0,0,0,2.49,1,3.47,3.47,0,0,0,2.45-1,3.5,3.5,0,0,0,.05-4.95l-24.53-25a3.47,3.47,0,0,0-2.49-1.05Zm49.05,49.94a3.47,3.47,0,0,0-2.45,1,3.5,3.5,0,0,0-.05,5l25.23,25.69a3.5,3.5,0,1,0,5-4.91L402,1318.1a3.47,3.47,0,0,0-2.49-1Zm49.75,50.65a3.51,3.51,0,0,0-2.5,6l24.53,25a3.5,3.5,0,1,0,5-4.91l-24.52-25a3.49,3.49,0,0,0-2.5-1ZM499,1418.36a3.5,3.5,0,0,0-2.5,6l24.53,25a3.5,3.5,0,1,0,5-4.91l-24.52-25a3.52,3.52,0,0,0-2.5-1Zm49,49.94a3.5,3.5,0,0,0-2.5,6l25.23,25.68a3.5,3.5,0,0,0,5-4.9l-25.23-25.69a3.52,3.52,0,0,0-2.5-1Zm92.11,26.12h-35a3.5,3.5,0,1,0,0,7h35a3.5,3.5,0,0,0,0-7Zm71,0h-35a3.5,3.5,0,1,0,0,7h35a3.5,3.5,0,0,0,0-7Zm71,0h-36a3.5,3.5,0,1,0,0,7h36a3.5,3.5,0,0,0,0-7Zm70,0h-35a3.5,3.5,0,1,0,0,7h35a3.5,3.5,0,0,0,0-7Zm71,0h-35a3.5,3.5,0,1,0,0,7h35a3.5,3.5,0,0,0,0-7Zm71,0h-36a3.5,3.5,0,1,0,0,7h36a3.5,3.5,0,0,0,0-7Zm70,0h-35a3.5,3.5,0,1,0,0,7h35a3.5,3.5,0,0,0,0-7Zm63.45-11.12a3.5,3.5,0,0,0-2.49,1l-10,10.09h-15a3.5,3.5,0,1,0,0,7H1118l0,0h0l.1-.1h0l0,0h0l0,0h0l0,0h0l0,0h0v0l0,0h0l0,0h0l11.7-11.8a3.5,3.5,0,0,0-2.5-6Zm50-50.41a3.5,3.5,0,0,0-2.49,1l-25.35,25.56a3.51,3.51,0,0,0,2.49,6,3.46,3.46,0,0,0,2.47-1l25.37-25.57a3.5,3.5,0,0,0-2.49-6Zm49.29-49.7a3.47,3.47,0,0,0-2.48,1l-24.65,24.85a3.5,3.5,0,0,0,0,5,3.47,3.47,0,0,0,2.46,1,3.52,3.52,0,0,0,2.49-1l24.65-24.85a3.49,3.49,0,0,0-2.49-6Zm50-50.41a3.5,3.5,0,0,0-2.49,1l-24.64,24.85a3.51,3.51,0,0,0,2.48,6,3.44,3.44,0,0,0,2.47-1l24.67-24.87a3.5,3.5,0,0,0,0-4.94,3.46,3.46,0,0,0-2.46-1Zm50-50.41a3.5,3.5,0,0,0-2.49,1L1299.06,1309a3.5,3.5,0,0,0,0,5,3.49,3.49,0,0,0,5,0l25.35-25.56a3.5,3.5,0,0,0,0-4.95,3.46,3.46,0,0,0-2.46-1Zm49.29-49.71a3.52,3.52,0,0,0-2.49,1l-24.64,24.85a3.5,3.5,0,0,0,0,5,3.46,3.46,0,0,0,2.46,1,3.5,3.5,0,0,0,2.49-1l16.82-17,.06,0,.09-.09,0,0,.08-.08.06-.06h0l7.49-7.56a3.51,3.51,0,0,0-2.49-6Zm50-50.41a3.52,3.52,0,0,0-2.49,1l-24.64,24.85a3.5,3.5,0,0,0,5,4.93l24.64-24.85a3.5,3.5,0,0,0,0-5,3.47,3.47,0,0,0-2.46-1Zm50-50.41a3.48,3.48,0,0,0-2.48,1l-25.35,25.56a3.5,3.5,0,0,0,0,5,3.46,3.46,0,0,0,2.46,1,3.5,3.5,0,0,0,2.49-1l25.35-25.56a3.51,3.51,0,0,0-2.49-6Zm23.84-57.11h0a3.5,3.5,0,0,0-3.46,3.54l.37,34.19h1a3.51,3.51,0,0,0,5.39.51h.06l0-.05h0l0,0h.12l0,0h0l0,0h0l.09-.09h0l.06-.06h0l0,0h0l-.37-34.18a3.5,3.5,0,0,0-3.5-3.47Zm-.76-71h0a3.5,3.5,0,0,0-3.47,3.53l.38,35a3.5,3.5,0,0,0,3.5,3.46h0a3.5,3.5,0,0,0,3.47-3.53l-.09-8.49v-.36c-.11-10.37-.28-26.15-.28-26.15a3.5,3.5,0,0,0-3.5-3.46Zm-.76-71h0a3.51,3.51,0,0,0-3.47,3.54l.39,36a3.5,3.5,0,0,0,3.5,3.46h0a3.5,3.5,0,0,0,3.46-3.53l-.11-10.2h0v-.23a1.09,1.09,0,0,0,0-.18v0c-.11-10.61-.27-25.38-.27-25.38a3.5,3.5,0,0,0-3.5-3.46Zm-.74-70h0a3.51,3.51,0,0,0-3.47,3.54l.38,35a3.5,3.5,0,0,0,3.5,3.46h0a3.5,3.5,0,0,0,3.46-3.53l-.07-6.61h0v-.43h0v-.29h0v-.08h0c-.11-10.28-.3-27.57-.3-27.57a3.5,3.5,0,0,0-3.49-3.47Zm-.76-71h0a3.5,3.5,0,0,0-3.47,3.54l.38,35a3.5,3.5,0,0,0,3.5,3.47h0a3.5,3.5,0,0,0,3.46-3.54V830h0V830h0v0h0v-.14h0v0h0v0h0v0h0v0h0v-.09h0v0h0v-.06h0v-.29h0c-.07-6.07-.37-33.83-.37-33.83a3.49,3.49,0,0,0-3.49-3.46Zm-.76-71h0a3.49,3.49,0,0,0-3.46,3.54l.38,36a3.5,3.5,0,0,0,3.5,3.46h0a3.5,3.5,0,0,0,3.46-3.53l-.39-36a3.5,3.5,0,0,0-3.49-3.44Zm-.75-70h0a3.5,3.5,0,0,0-3.46,3.53l.37,35a3.5,3.5,0,0,0,3.5,3.46h0a3.5,3.5,0,0,0,3.46-3.53l-.37-35a3.5,3.5,0,0,0-3.5-3.46Zm-.76-71h0a3.5,3.5,0,0,0-3.46,3.54l.37,35a3.5,3.5,0,0,0,3.5,3.46h0a3.5,3.5,0,0,0,3.46-3.54s0-3.07-.08-7.4v-.51h0l-.29-27.1a3.5,3.5,0,0,0-3.5-3.44Zm-32.2-54.34a3.5,3.5,0,0,0-2.41,6l26.08,24.82a3.5,3.5,0,1,0,4.82-5.07l-8.23-7.84,0,0-.55-.53h0l-.56-.53,0,0-.27-.26,0,0-.12-.12h0l-.1-.1-.2-.2-.11-.1-.06-.06h0l-15.74-15a3.49,3.49,0,0,0-2.41-1Zm-50.71-48.26a3.45,3.45,0,0,0-2.53,1.09,3.5,3.5,0,0,0,.12,4.95l25.35,24.12a3.5,3.5,0,0,0,4.85-5.05l-25.38-24.15a3.48,3.48,0,0,0-2.41-1Zm-51.43-48.94a3.49,3.49,0,0,0-2.41,6l25.35,24.13a3.5,3.5,0,0,0,4.83-5.07L1377.28,443l0,0,0,0,0,0,0,0-14.36-13.66a3.47,3.47,0,0,0-2.39-.94Zm-51.43-49a3.5,3.5,0,0,0-2.42,6l26.08,24.81a3.5,3.5,0,1,0,4.83-5.06l-9.31-8.86h0L1328,396l-.06-.06h0l-16.51-15.71a3.48,3.48,0,0,0-2.41-1ZM1258.25,331a3.5,3.5,0,0,0-2.42,6l25.36,24.13a3.5,3.5,0,1,0,4.82-5.07l-.49-.47h0l0,0h0l-.13-.12h0l0,0h0l-.09-.09,0,0h0l0-.05,0,0,0,0v0h0l-.09-.08-24.22-23a3.52,3.52,0,0,0-2.41-1Zm-51.44-48.95a3.5,3.5,0,0,0-2.41,6l25.35,24.12a3.5,3.5,0,0,0,4.83-5.07L1220.73,294l0,0-.26-.25,0,0-.13-.12h0l-.08-.08-.1-.09h0l-.06-.06h0L1209.22,283a3.5,3.5,0,0,0-2.41-1Zm-51.43-48.94a3.5,3.5,0,0,0-2.42,6L1179,264a3.5,3.5,0,0,0,4.83-5.07l-26.08-24.82a3.52,3.52,0,0,0-2.41-1Zm-42-41.33-4.87,0h0l-31.13.28a3.5,3.5,0,0,0,0,7h0l33.16-.3,17,16.21a3.52,3.52,0,0,0,2.41,1,3.47,3.47,0,0,0,2.54-1.09,3.5,3.5,0,0,0-.12-4.95l-15.56-14.8h0l-3.53-3.36Z"/></g></g></svg>